<svg width="800" height="600" xmlns="http://www.w3.org/2000/svg">
 <!-- Created with Method Draw - http://github.com/duopixel/Method-Draw/ -->
 <g>
  <title>Layer 1</title>
  <path id="svg_1" d="m427.14809,207.56727l-97.80456,0l-30.19099,-94.67194l-4.23921,13.2303l-25.98741,81.45979l-97.77784,-0.01815l79.10218,58.56539l-30.24443,94.73546l79.11999,-58.56539l79.1378,58.59261l-30.25333,-94.76268l79.1378,-58.56539zm-117.54003,80.05328l-10.46443,-7.74036l-10.46443,7.74943l-34.75081,25.7165l13.26979,-41.59649l4.00765,-12.54065l-10.48224,-7.75851l-34.733,-25.7165l55.8845,0l4.00765,-12.53158l13.26088,-41.59649l13.26088,41.56927l3.99875,12.53158l55.93794,0l-34.78643,25.73465l-10.49115,7.74943l3.99875,12.5588l13.2965,41.59649l-34.75081,-25.72558z" opacity="0.5" stroke-width="1.5" stroke="#000" fill="#fff"/>
 </g>
 <g>
  <title>background</title>
  <rect fill="#fff" id="canvas_background" height="602" width="802" y="-1" x="-1"/>
  <g display="none" overflow="visible" y="0" x="0" height="100%" width="100%" id="canvasGrid">
   <rect fill="url(#gridpattern)" stroke-width="0" y="0" x="0" height="100%" width="100%"/>
  </g>
  <path id="svg_10" d="m268.31666,447.4306l-147.42279,133.89747l56.35387,-216.59274l-147.3896,-133.89747l182.18761,0.04149l48.42185,-186.24071l7.89883,-30.2483l56.2543,216.44751l182.2374,0l-147.45597,133.89747l56.37046,216.65498l-147.45597,-133.9597l0,0z" stroke-width="1.5" stroke="#000" fill="#000000"/>
 </g>
</svg>