<svg width="800" height="600" xmlns="http://www.w3.org/2000/svg">
 <!-- Created with Method Draw - http://github.com/duopixel/Method-Draw/ -->
 <g>
  <title>Layer 1</title>
  <path id="svg_1" d="m427.14809,207.56727l-97.80456,0l-30.19099,-94.67194l-4.23921,13.2303l-25.98741,81.45979l-97.77784,-0.01815l79.10218,58.56539l-30.24443,94.73546l79.11999,-58.56539l79.1378,58.59261l-30.25333,-94.76268l79.1378,-58.56539zm-117.54003,80.05328l-10.46443,-7.74036l-10.46443,7.74943l-34.75081,25.7165l13.26979,-41.59649l4.00765,-12.54065l-10.48224,-7.75851l-34.733,-25.7165l55.8845,0l4.00765,-12.53158l13.26088,-41.59649l13.26088,41.56927l3.99875,12.53158l55.93794,0l-34.78643,25.73465l-10.49115,7.74943l3.99875,12.5588l13.2965,41.59649l-34.75081,-25.72558z" opacity="0.5" stroke-width="1.5" stroke="#000" fill="#fff"/>
 </g>
 <g>
  <title>background</title>
  <rect fill="#fff" id="canvas_background" height="602" width="802" y="-1" x="-1"/>
  <g display="none" overflow="visible" y="0" x="0" height="100%" width="100%" id="canvasGrid">
   <rect fill="url(#gridpattern)" stroke-width="0" y="0" x="0" height="100%" width="100%"/>
  </g>
  <path id="svg_6" d="m506.85314,233.67265l-181.85535,0l-56.13637,-215.30231l-7.88228,30.08826l-48.32033,185.25533l-181.80567,-0.04127l147.08061,133.18903l-56.23573,215.44677l147.11373,-133.18903l147.14684,133.25094l-56.25229,-215.50868l147.14684,-133.18903zm-218.55098,182.05665l-19.4573,-17.60307l-19.4573,17.62371l-64.61479,58.48431l24.67351,-94.59847l7.45173,-28.51987l-19.49042,-17.64435l-64.58167,-58.48431l103.91025,0l7.45173,-28.49923l24.65695,-94.59847l24.65695,94.53656l7.43517,28.49923l104.0096,0l-64.68102,58.52558l-19.50698,17.62371l7.43517,28.56114l24.72319,94.59847l-64.61479,-58.50494z" stroke-width="1.5" stroke="#000" fill="#fff"/>
 </g>
</svg>